<svg xmlns="http://www.w3.org/2000/svg" style="display:none">
  <symbol id="aircraft-commercial" viewBox="0 0 24 24">
    <path fill="currentColor" d="M21 16v-2l-8-5V3.5c0-.83-.67-1.5-1.5-1.5S10 2.67 10 3.5V9l-8 5v2l8-2.5V19l-2 1.5V22l3.5-1 3.5 1v-1.5L13 19v-5.5l8 2.5z"/>
  </symbol>
  <symbol id="aircraft-cargo" viewBox="0 0 24 24">
    <path fill="currentColor" d="M20 8h-3V4H3c-1.1 0-2 .9-2 2v11h2c0 1.66 1.34 3 3 3s3-1.34 3-3h6c0 1.66 1.34 3 3 3s3-1.34 3-3h2v-5l-3-4zM6 18.5c-.83 0-1.5-.67-1.5-1.5s.67-1.5 1.5-1.5 1.5.67 1.5 1.5-.67 1.5-1.5 1.5zm13.5-9l1.96 2.5H17V9.5h2.5zm-1.5 6c-.83 0-1.5-.67-1.5-1.5s.67-1.5 1.5-1.5 1.5.67 1.5 1.5-.67 1.5-1.5 1.5z"/>
  </symbol>
  <symbol id="aircraft-private" viewBox="0 0 24 24">
    <path fill="currentColor" d="M12 2c-4 0-8 .5-8 4v9.5C4 17.43 5.57 19 7.5 19L6 20.5v.5h2l2-2h4l2 2h2v-.5L16.5 19c1.93 0 3.5-1.57 3.5-3.5V6c0-3.5-4-4-8-4zm0 2c3.51 0 5.28.35 5.28 2H6.72c0-1.65 1.77-2 5.28-2zM6 17.5c-.83 0-1.5-.67-1.5-1.5s.67-1.5 1.5-1.5 1.5.67 1.5 1.5-.67 1.5-1.5 1.5zm12 0c-.83 0-1.5-.67-1.5-1.5s.67-1.5 1.5-1.5 1.5.67 1.5 1.5-.67 1.5-1.5 1.5z"/>
  </symbol>
  <symbol id="aircraft-helicopter" viewBox="0 0 24 24">
    <path fill="currentColor" d="M12 2L8 8H4l-2 4 4 2v4h2v-3h8v3h2v-4l4-2-2-4h-4l-4-6zm0 5a3 3 0 1 0 0 6 3 3 0 0 0 0-6z"/>
  </symbol>
  <symbol id="aircraft-military" viewBox="0 0 24 24">
    <path fill="currentColor" d="M12 2L2 7l2 2v4l-4 2 4 2v4l2 2 10-5-2-2v-4l4-2-4-2V9l2-2L12 2zm0 4l5 2.5v3L12 14l-5-2.5v-3L12 6z"/>
  </symbol>
  <symbol id="aircraft-rc" viewBox="0 0 24 24">
    <path fill="currentColor" d="M12 2c-3 0-5.5 2-7 5L3 9l1.5 1.5L6 9l2 1-2 1.5L8 13l1-1.5L10 13l1 2-1 1.5 2 2.5L15 17l3 2 3-2 2.5-1 2.5 1 1-1-1-1.5 1-1-2-2 1-1.5-1-2 1.5-1.5-2-1.5L18 7l-2-2-3 1.5L12 5z"/>
  </symbol>
</svg>